<svg xmlns="http://www.w3.org/2000/svg" xmlns:xlink="http://www.w3.org/1999/xlink" viewBox="0 0 593.8 405.56"><defs><style>.cls-1{fill:#1c0242;}.cls-2{fill:url(#linear-gradient);}</style><linearGradient id="linear-gradient" x1="146.78" y1="267.79" x2="422.32" y2="-7.75" gradientUnits="userSpaceOnUse"><stop offset="0" stop-color="#a32f80"/><stop offset="1" stop-color="#000223"/></linearGradient></defs><g id="Layer_2" data-name="Layer 2"><g id="Layer_1-2" data-name="Layer 1"><path class="cls-1" d="M21.87,286.35c2-3.32,6-8.5,13.63-16,12.36-12.15,30.32-26.47,53.38-42.53,48.54-33.82,115.05-72,187.29-107.63,49.44-24.35,99.49-46.43,144.74-63.82,43.34-16.66,81.65-28.83,110.77-35.17h0c26-5.66,37.41-5.16,41.74-4.45-.13.29-.29.63-.47,1l19.73-9.62c-.12-.23-.23-.46-.36-.68-5.88-9.3-28.81-9.36-63.48-1.8h0c-60.72,13.23-157.39,49.83-261.25,101C112.25,183.11-3.2,264.66.07,294.39l.27,1.51c.08.28.18.54.28.81Z"/><path class="cls-2" d="M468.43,221.68l-.28.28-183.6,183.6L100.67,221.68A130,130,0,0,1,284.55,37.81,130,130,0,0,1,468.43,221.68Z"/><path class="cls-1" d="M573,17.69c-1.59,3.09-5.41,8.76-14.66,17.86C545.94,47.71,528,62,504.91,78.09c-48.54,33.82-115,72-187.28,107.63-49.45,24.35-99.5,46.42-144.74,63.82-43.35,16.66-81.65,28.82-110.77,35.17-26,5.66-37.43,5.17-41.76,4.46a23.82,23.82,0,0,1,1.51-2.82L.62,296.71a9.28,9.28,0,0,0,.85,1.77c5.87,9.3,28.81,9.36,63.48,1.8,60.72-13.24,157.39-49.83,261.25-101,153-75.36,267.25-155.57,267.6-186.4l-.73-4c-.11-.28-.25-.54-.38-.81Z"/></g></g></svg>