<svg xmlns="http://www.w3.org/2000/svg" viewBox="0 0 54.83 52.15"><defs><style>.cls-1{fill:#fff;}</style></defs><g id="Layer_2" data-name="Layer 2"><g id="Layer_1-2" data-name="Layer 1"><path class="cls-1" d="M27.42,2.26,35,17.61l.23.47.52.08,16.94,2.46L40.43,32.56l-.38.37.09.52L43,50.32l-15.15-8-.46-.25-.47.25-15.15,8,2.89-16.87.09-.52-.37-.37L2.15,20.62l16.94-2.46.52-.08.23-.47L27.42,2.26m0-2.26L18.94,17.17,0,19.92,13.71,33.28,10.47,52.15l17-8.91,16.94,8.91L41.12,33.28,54.83,19.92,35.89,17.17,27.42,0Z"/></g></g></svg>