<svg xmlns="http://www.w3.org/2000/svg" xmlns:xlink="http://www.w3.org/1999/xlink" viewBox="0 0 629.88 470.59"><defs><style>.cls-1{fill:#f7beff;}.cls-2{fill:url(#linear-gradient);}</style><linearGradient id="linear-gradient" x1="459.15" y1="77.15" x2="132.03" y2="404.27" gradientUnits="userSpaceOnUse"><stop offset="0" stop-color="#000223"/><stop offset="0.04" stop-color="#0c0b2e"/><stop offset="0.31" stop-color="#5f4a77"/><stop offset="0.56" stop-color="#a07cb1"/><stop offset="0.76" stop-color="#cfa0db"/><stop offset="0.91" stop-color="#ecb6f5"/><stop offset="1" stop-color="#f7beff"/></linearGradient></defs><g id="Layer_2" data-name="Layer 2"><g id="Layer_1-2" data-name="Layer 1"><path class="cls-1" d="M22.77,307.39c2.52-3,7.21-7.49,15.93-13.76,14.08-10.12,34-21.5,59.28-33.85,53.15-26,124.74-53.53,201.59-77.62,52.58-16.48,105.43-30.61,152.8-40.86,45.4-9.82,85.11-16,114.86-17.77h0c26.53-1.61,37.76.64,41.93,2-.17.27-.38.58-.62.91l21-6.48a7,7,0,0,0-.25-.73c-4.38-10.09-27-13.67-62.45-11.52h0c-62,3.77-163.17,25.1-273.65,59.73C127.92,219.24,1.33,282.11,0,312l0,1.53c0,.29.1.56.15.84Z"/><polygon class="cls-2" points="559.9 230.24 414.72 307.31 395.9 470.59 277.75 356.33 116.64 388.89 188.8 241.21 108.05 98.05 270.8 121.03 382 0 410.43 161.89 559.9 230.24"/><path class="cls-1" d="M608.55,126.44c-2,2.81-6.68,7.83-17.23,15.4-14.07,10.12-34,21.5-59.27,33.85-53.15,26-124.74,53.53-201.58,77.62-52.6,16.48-105.44,30.62-152.82,40.86-45.39,9.82-85.1,16-114.84,17.77-26.55,1.61-37.79-.64-42-2a24.77,24.77,0,0,1,1.92-2.55l-22.58,7a9.46,9.46,0,0,0,.56,1.88c4.39,10.1,27,13.67,62.46,11.52,62-3.76,163.17-25.1,273.65-59.73,162.72-51,287.95-112.74,293-143.15l-.1-4.06a8.52,8.52,0,0,0-.26-.86Z"/></g></g></svg>