<svg xmlns="http://www.w3.org/2000/svg" viewBox="0 0 69.57 49.13"><defs><style>.cls-1,.cls-2{fill:none;stroke:#fff;}.cls-1{stroke-linecap:round;stroke-linejoin:round;}.cls-2{stroke-miterlimit:10;}</style></defs><g id="Layer_2" data-name="Layer 2"><g id="Layer_1-2" data-name="Layer 1"><path class="cls-1" d="M56.51,16.18l-.14-.12L53.61,8.2c0-.07,0-.12,0-.19Z"/><path class="cls-1" d="M69.07,9.93a7.85,7.85,0,0,1-3.67,6.64L60.34,2.16a8.88,8.88,0,0,1,.9-.05A7.83,7.83,0,0,1,69.07,9.93Z"/><polyline class="cls-1" points="27.31 48.63 32.88 35.38 36.34 27.19"/><line class="cls-1" x1="49.46" y1="48.63" x2="39.11" y2="27.22"/><path class="cls-2" d="M57.16,18.32,40.65,24.13a2.94,2.94,0,0,0-5.83.48,2.88,2.88,0,0,0,.37,1.44L32.56,27l-.64-1.82-3.14-8.94h0l-.64-1.82L52.74,5.73l.87,2.47,2.76,7.86Z"/><polygon class="cls-2" points="31.92 25.16 6.9 33.98 3.77 25.02 28.77 16.22 28.78 16.22 31.92 25.16"/><polygon class="cls-2" points="65.85 17.86 58.07 20.6 56.51 16.18 53.65 8.01 52.02 3.38 59.8 0.64 60.33 2.15 60.34 2.15 65.4 16.57 65.85 17.86"/><polygon class="cls-2" points="7.25 34.97 4.47 35.94 0.64 25.01 3.42 24.04 3.77 25.02 6.9 33.98 7.25 34.97"/><path class="cls-2" d="M40.69,24.61a2.93,2.93,0,0,1-2.94,2.94,3.08,3.08,0,0,1-1.42-.36,3,3,0,0,1-1.14-1.14,2.88,2.88,0,0,1-.37-1.44,2.94,2.94,0,0,1,5.83-.48A2.59,2.59,0,0,1,40.69,24.61Z"/><line class="cls-1" x1="32.86" y1="35.38" x2="42.65" y2="35.38"/></g></g></svg>